<svg width="391" height="107" viewBox="0 0 391 107" fill="none" xmlns="http://www.w3.org/2000/svg">
<path d="M0.00830078 23.2566H24.6422C28.1134 23.2566 31.1467 23.5443 33.7484 24.1292C36.3502 24.7173 38.5237 25.5451 40.2689 26.6191C42.0109 27.6995 43.3245 28.9908 44.2003 30.509C45.0793 32.0273 45.5172 33.7053 45.5172 35.5656C45.5172 37.4258 44.9994 39.1806 43.967 40.8235C42.9314 42.46 41.4227 43.8759 39.4378 45.0682C42.6949 46.0111 45.1305 47.3855 46.7382 49.2074C48.3491 51.0165 49.1514 53.2475 49.1514 55.8812C49.1514 57.6743 48.7199 59.41 47.8505 61.0816C46.9843 62.7533 45.6898 64.2396 43.967 65.5309C42.241 66.8286 40.0835 67.8642 37.4945 68.6536C34.9023 69.4335 31.8722 69.8267 28.4042 69.8267H0.00830078V23.2566ZM20.0683 42.1819C21.7815 42.1819 23.223 42.0189 24.3929 41.6961C25.5627 41.3701 26.496 40.929 27.1992 40.36C27.896 39.7975 28.3978 39.155 28.7015 38.4262C29.0051 37.6911 29.1586 36.9272 29.1586 36.1346C29.1586 35.3419 29.0051 34.5811 28.7015 33.8428C28.3978 33.114 27.896 32.4684 27.1992 31.9186C26.496 31.3625 25.5627 30.9214 24.3929 30.5826C23.223 30.2502 21.7815 30.0839 20.0683 30.0839H18.1569L18.1249 42.1819H20.0683ZM20.0683 62.9898C21.9285 62.9898 23.4947 62.798 24.77 62.3985C26.0422 61.9989 27.0778 61.462 27.8704 60.7684C28.6663 60.0748 29.2417 59.2693 29.5964 58.3392C29.9512 57.4091 30.127 56.4119 30.127 55.3411C30.127 54.4046 29.9416 53.4872 29.5645 52.589C29.1873 51.6909 28.628 50.8918 27.8864 50.1918C27.1449 49.4854 26.2307 48.9262 25.144 48.4947C24.0573 48.0695 22.8043 47.8586 21.3852 47.8586H18.1249V62.9898H20.0683Z" fill="#BDBDBD"/>
<path d="M67.4772 35.002L62.0851 23.2524H81.1734L103.989 69.8544H83.5227L80.0771 62.3943H61.7079L58.2943 69.8544H50.3643L67.4772 35.002ZM76.7849 55.2186L70.8909 42.4334L65.0321 55.2186H76.7849Z" fill="#BDBDBD"/>
<path d="M107.173 23.2566H118.52L148.073 48.0759L148.105 23.2566H155V69.8267H143.656L114.068 45.1001V69.8267H107.173V23.2566Z" fill="#BDBDBD"/>
<path d="M163.702 23.2566H182.851C188.24 23.2566 192.91 23.7616 196.861 24.7749C200.808 25.7849 204.078 27.2776 206.67 29.2401C209.259 31.2058 211.183 33.6222 212.436 36.4829C213.689 39.3468 214.316 42.6262 214.316 46.3275C214.316 49.6229 213.689 52.7009 212.436 55.5552C211.183 58.4095 209.259 60.8931 206.67 63.0154C204.078 65.1314 200.808 66.8062 196.861 68.0144C192.91 69.2258 188.24 69.8299 182.851 69.8299H163.702V23.2566ZM181.816 62.9898C183.906 62.9898 185.785 62.6702 187.457 62.0214C189.129 61.3725 190.545 60.3721 191.705 59.0136C192.865 57.652 193.751 55.9229 194.367 53.8261C194.984 51.7293 195.294 49.2137 195.294 46.2923C195.294 43.3837 194.978 40.9098 194.351 38.8642C193.725 36.8154 192.827 35.1373 191.657 33.8332C190.487 32.5291 189.071 31.5734 187.409 30.9789C185.75 30.378 183.893 30.0872 181.848 30.0872L181.816 62.9898Z" fill="#BDBDBD"/>
<path d="M220.289 23.2566H238.434L238.402 69.8267H220.289V23.2566Z" fill="#BDBDBD"/>
<path d="M278.619 50.3243L273.6 47.2784C270.452 45.3542 268.211 43.4715 266.879 41.6049C265.546 39.7446 264.881 37.6095 264.881 35.1804C264.881 31.5526 266.143 28.6056 268.665 26.333C271.184 24.0668 274.454 22.9385 278.488 22.9385C282.336 22.9385 285.871 24.0188 289.08 26.1795V33.6781C285.756 30.4818 282.179 28.8836 278.35 28.8836C276.193 28.8836 274.422 29.3758 273.038 30.3763C271.651 31.3735 270.96 32.6488 270.96 34.2086C270.96 35.5894 271.468 36.8808 272.491 38.0858C273.514 39.2972 275.157 40.5629 277.423 41.8862L282.461 44.8715C288.089 48.2308 290.905 52.5139 290.905 57.7079C290.905 61.4028 289.662 64.4073 287.188 66.715C284.714 69.0324 281.495 70.1798 277.532 70.1798C272.977 70.1798 268.828 68.7799 265.085 65.9863V57.596C268.653 62.1156 272.779 64.3754 277.465 64.3754C279.533 64.3754 281.256 63.7936 282.633 62.6461C284.008 61.4986 284.698 60.0539 284.698 58.3183C284.692 55.5056 282.665 52.8462 278.619 50.3243Z" fill="#BDBDBD"/>
<path d="M334.809 23.5376H341.084V69.657H335.401L304.566 34.1366V69.657H298.359V23.5376H303.706L334.809 59.3585V23.5376Z" fill="#BDBDBD"/>
<path d="M389.351 58.9544V66.2196C384.509 68.8597 378.918 70.1765 372.58 70.1765C367.431 70.1765 363.065 69.1474 359.472 67.073C355.886 65.0082 353.041 62.1539 350.954 58.5261C348.864 54.8919 347.818 50.9604 347.818 46.7349C347.818 40.0227 350.212 34.3812 355 29.7977C359.785 25.2206 365.689 22.9385 372.711 22.9385C377.554 22.9385 382.936 24.2011 388.856 26.7357V33.8346C383.463 30.7502 378.193 29.2096 373.044 29.2096C367.763 29.2096 363.375 30.8749 359.888 34.2086C356.4 37.5488 354.652 41.7264 354.652 46.7382C354.652 51.8011 356.368 55.9659 359.804 59.2229C363.237 62.4831 367.629 64.1036 372.976 64.1036C378.567 64.1036 384.023 62.3872 389.351 58.9544Z" fill="#BDBDBD"/>
<path d="M238.437 9.71207C238.437 14.7367 234.364 18.8152 229.34 18.8152C224.315 18.8152 220.243 14.7399 220.243 9.71207C220.243 4.69388 224.315 0.615479 229.34 0.615479C234.364 0.618675 238.437 4.69388 238.437 9.71207Z" fill="#22AC39"/>
<path d="M0.48708 103.785C1.35647 104.322 2.61901 104.76 3.94867 104.76C5.92399 104.76 7.07785 103.718 7.07785 102.213C7.07785 100.81 6.27878 100.014 4.25871 99.2402C1.81994 98.374 0.311283 97.1051 0.311283 94.9955C0.311283 92.6654 2.24185 90.9363 5.14728 90.9363C6.67831 90.9363 7.78743 91.2911 8.45226 91.665L7.92167 93.244C7.43264 92.9755 6.43539 92.5312 5.08016 92.5312C3.03773 92.5312 2.26103 93.749 2.26103 94.7718C2.26103 96.1718 3.17197 96.8558 5.23678 97.6549C7.76505 98.6297 9.05316 99.8539 9.05316 102.05C9.05316 104.361 7.34314 106.352 3.81762 106.352C2.3729 106.352 0.797122 105.933 -0.00195312 105.403L0.48708 103.785Z" fill="#BDBDBD"/>
<path d="M19.4524 106.135V99.7875L14.7251 91.1799H16.9209L19.0305 95.3063C19.609 96.4378 20.0501 97.3488 20.5168 98.3908H20.5615C20.9834 97.4159 21.4949 96.4378 22.0702 95.3063L24.2245 91.1799H26.4204L21.4054 99.7652V106.139H19.4524V106.135Z" fill="#BDBDBD"/>
<path d="M31.9988 103.785C32.865 104.322 34.1307 104.76 35.4604 104.76C37.4357 104.76 38.5896 103.718 38.5896 102.213C38.5896 100.81 37.7905 100.014 35.7704 99.2402C33.3317 98.374 31.823 97.1051 31.823 94.9955C31.823 92.6654 33.7536 90.9363 36.659 90.9363C38.19 90.9363 39.2991 91.2911 39.964 91.665L39.4334 93.244C38.9444 92.9755 37.9471 92.5312 36.5919 92.5312C34.5494 92.5312 33.7727 93.749 33.7727 94.7718C33.7727 96.1718 34.6837 96.8558 36.7485 97.6549C39.2768 98.6297 40.5649 99.8539 40.5649 102.05C40.5649 104.361 38.8549 106.352 35.3293 106.352C33.8846 106.352 32.3088 105.933 31.5098 105.403L31.9988 103.785Z" fill="#BDBDBD"/>
<path d="M50.4712 92.8196H45.9229V91.1799H56.9948V92.8196H52.4241V106.135H50.4712V92.8196Z" fill="#BDBDBD"/>
<path d="M70.832 99.1259H65.018V104.512H71.4969V106.135H63.0874V91.1799H71.1645V92.7941H65.018V97.5278H70.832V99.1259Z" fill="#BDBDBD"/>
<path d="M91.037 99.5702C90.9251 97.4862 90.7941 94.974 90.8132 93.1105H90.7493C90.2379 94.8653 89.6178 96.7255 88.8635 98.7904L86.2202 106.046H84.7563L82.3367 98.9278C81.6271 96.8182 81.0294 94.8877 80.6075 93.1105H80.5627C80.518 94.9771 80.4061 97.4863 80.2751 99.7269L79.8755 106.139H78.0312L79.0764 91.1799H81.5376L84.0914 98.4164C84.7115 100.257 85.2229 101.9 85.6001 103.454H85.6672C86.0444 101.942 86.575 100.302 87.243 98.4164L89.9055 91.1799H92.3698L93.3 106.139H91.4142L91.037 99.5702Z" fill="#BDBDBD"/>
<path d="M119.199 106.139C118.777 105.714 118.377 105.295 117.802 104.678C116.514 105.87 115.072 106.382 113.43 106.382C110.524 106.382 108.836 104.429 108.836 102.188C108.836 100.146 110.057 98.7489 111.764 97.8188V97.7485C110.988 96.7736 110.524 95.6869 110.524 94.6225C110.524 92.8006 111.831 90.9404 114.318 90.9404C116.182 90.9404 117.623 92.1837 117.623 94.1111C117.623 95.69 116.715 96.927 114.34 98.1064V98.1737C115.606 99.6408 117.025 101.277 117.978 102.345C118.665 101.303 119.132 99.8613 119.423 97.9754H121.197C120.797 100.328 120.155 102.188 119.045 103.502C119.844 104.346 120.621 105.186 121.507 106.142H119.199V106.139ZM116.843 103.569C115.958 102.588 114.293 100.772 112.627 98.8608C111.828 99.3723 110.697 100.328 110.697 101.9C110.697 103.611 111.962 104.915 113.759 104.915C115.047 104.915 116.137 104.342 116.843 103.569ZM112.298 94.4467C112.298 95.5079 112.787 96.3325 113.43 97.1316C114.938 96.2622 115.916 95.4631 115.916 94.1974C115.916 93.2928 115.405 92.2668 114.184 92.2668C112.94 92.2668 112.298 93.2929 112.298 94.4467Z" fill="#BDBDBD"/>
<path d="M147.27 105.653C146.561 106.001 145.135 106.359 143.32 106.359C139.104 106.359 135.93 103.7 135.93 98.7937C135.93 94.1112 139.104 90.9404 143.741 90.9404C145.605 90.9404 146.781 91.34 147.293 91.6021L146.826 93.181C146.094 92.8262 145.052 92.5577 143.809 92.5577C140.302 92.5577 137.972 94.7983 137.972 98.733C137.972 102.393 140.082 104.745 143.719 104.745C144.895 104.745 146.094 104.502 146.871 104.122L147.27 105.653Z" fill="#BDBDBD"/>
<path d="M154.115 91.1799H156.045V104.512H162.438V106.135H154.115V91.1799Z" fill="#BDBDBD"/>
<path d="M180.934 98.506C180.934 103.655 177.805 106.385 173.989 106.385C170.038 106.385 167.264 103.32 167.264 98.7937C167.264 94.044 170.217 90.9404 174.212 90.9404C178.297 90.9372 180.934 94.0663 180.934 98.506ZM169.328 98.749C169.328 101.945 171.061 104.812 174.101 104.812C177.163 104.812 178.892 101.99 178.892 98.602C178.892 95.623 177.338 92.5161 174.123 92.5161C170.927 92.513 169.328 95.4632 169.328 98.749Z" fill="#BDBDBD"/>
<path d="M189.796 91.1799V100.034C189.796 103.387 191.282 104.809 193.28 104.809C195.498 104.809 196.92 103.342 196.92 100.034V91.1799H198.873V99.9026C198.873 104.499 196.454 106.382 193.213 106.382C190.151 106.382 187.843 104.627 187.843 99.989V91.1799H189.796Z" fill="#BDBDBD"/>
<path d="M206.644 91.3819C207.82 91.2061 209.217 91.0686 210.748 91.0686C213.522 91.0686 215.497 91.7111 216.808 92.9353C218.137 94.1531 218.914 95.8823 218.914 98.305C218.914 100.747 218.16 102.745 216.763 104.116C215.366 105.522 213.059 106.27 210.15 106.27C208.772 106.27 207.622 106.206 206.644 106.094V91.3819ZM208.574 104.611C209.063 104.698 209.773 104.723 210.527 104.723C214.653 104.723 216.897 102.412 216.897 98.3754C216.92 94.8435 214.922 92.6061 210.837 92.6061C209.84 92.6061 209.086 92.6859 208.574 92.8042V104.611Z" fill="#BDBDBD"/>
<path d="M236.913 91.1799H234.982V106.139H236.913V91.1799Z" fill="#BDBDBD"/>
<path d="M244.723 106.139V91.1799H246.832L251.623 98.7456C252.736 100.5 253.599 102.073 254.308 103.604L254.356 103.585C254.177 101.587 254.136 99.7652 254.136 97.4351V91.1799H255.954V106.139H254.002L249.255 98.5474C248.213 96.8853 247.213 95.1753 246.458 93.5548L246.391 93.5804C246.5 95.4662 246.545 97.2625 246.545 99.7492V106.142H244.723V106.139Z" fill="#BDBDBD"/>
<path d="M263.742 106.139V91.1799H265.852L270.643 98.7456C271.752 100.5 272.615 102.073 273.328 103.604L273.373 103.585C273.197 101.587 273.152 99.7652 273.152 97.4351V91.1799H274.971V106.139H273.018L268.271 98.5474C267.229 96.8853 266.229 95.1753 265.478 93.5548L265.411 93.5804C265.519 95.4662 265.564 97.2625 265.564 99.7492V106.142H263.742V106.139Z" fill="#BDBDBD"/>
<path d="M295.555 98.506C295.555 103.655 292.426 106.385 288.609 106.385C284.659 106.385 281.884 103.32 281.884 98.7937C281.884 94.044 284.838 90.9404 288.833 90.9404C292.912 90.9372 295.555 94.0663 295.555 98.506ZM283.949 98.749C283.949 101.945 285.681 104.812 288.721 104.812C291.783 104.812 293.512 101.99 293.512 98.602C293.512 95.623 291.959 92.5161 288.744 92.5161C285.547 92.513 283.949 95.4632 283.949 98.749Z" fill="#BDBDBD"/>
<path d="M305.768 106.139L300.888 91.1799H302.972L305.302 98.5474C305.947 100.564 306.5 102.386 306.9 104.141H306.948C307.37 102.405 307.99 100.526 308.658 98.5666L311.186 91.1799H313.251L307.904 106.139H305.768Z" fill="#BDBDBD"/>
<path d="M320.452 101.43L318.898 106.139H316.904L321.986 91.1799H324.316L329.424 106.139H327.359L325.761 101.43H320.452ZM325.355 99.925L323.891 95.6164C323.559 94.6415 323.335 93.7497 323.114 92.8867H323.069C322.846 93.7721 322.603 94.6799 322.315 95.5908L320.851 99.9218H325.355V99.925Z" fill="#BDBDBD"/>
<path d="M337.171 92.8196H332.623V91.1799H343.695V92.8196H339.121V106.135H337.171V92.8196Z" fill="#BDBDBD"/>
<path d="M351.711 91.1799H349.781V106.139H351.711V91.1799Z" fill="#BDBDBD"/>
<path d="M372.298 98.506C372.298 103.655 369.169 106.385 365.353 106.385C361.402 106.385 358.625 103.32 358.625 98.7937C358.625 94.044 361.578 90.9404 365.573 90.9404C369.658 90.9372 372.298 94.0663 372.298 98.506ZM360.693 98.749C360.693 101.945 362.425 104.812 365.465 104.812C368.523 104.812 370.253 101.99 370.253 98.602C370.253 95.623 368.702 92.5161 365.487 92.5161C362.291 92.513 360.693 95.4632 360.693 98.749Z" fill="#BDBDBD"/>
<path d="M379.235 106.139V91.1799H381.344L386.132 98.7456C387.245 100.5 388.108 102.073 388.821 103.604L388.865 103.585C388.69 101.587 388.645 99.7652 388.645 97.4351V91.1799H390.463V106.139H388.51L383.764 98.5474C382.722 96.8853 381.722 95.1753 380.97 93.5548L380.903 93.5804C381.012 95.4662 381.057 97.2625 381.057 99.7492V106.142H379.235V106.139Z" fill="#BDBDBD"/>
</svg>
