<svg width="185" height="50" viewBox="0 0 185 50" fill="none" xmlns="http://www.w3.org/2000/svg">
<path d="M-0.000488281 10.6978H11.646C13.2873 10.6978 14.7202 10.8355 15.9499 11.111C17.1779 11.3882 18.2059 11.7813 19.0308 12.2903C19.8539 12.7976 20.4738 13.4107 20.8887 14.1263C21.3037 14.842 21.512 15.6399 21.512 16.5185C21.512 17.3988 21.2667 18.2269 20.7778 19.003C20.289 19.7791 19.5734 20.446 18.6377 21.0105C20.1781 21.4556 21.3305 22.1057 22.0898 22.9658C22.8491 23.8259 23.2321 24.8775 23.2321 26.1223C23.2321 26.9723 23.0272 27.7887 22.6173 28.5833C22.2074 29.3745 21.5943 30.0734 20.7795 30.6832C19.9648 31.2963 18.9434 31.7886 17.7205 32.1598C16.4958 32.5311 15.0629 32.7141 13.4234 32.7141H-0.000488281V10.6978ZM9.48068 19.6464C10.2904 19.6464 10.9724 19.5692 11.5251 19.4163C12.0778 19.2634 12.5213 19.0534 12.8522 18.7863C13.1815 18.5192 13.42 18.2135 13.5645 17.8658C13.7056 17.5214 13.7795 17.1602 13.7795 16.7873C13.7795 16.411 13.7056 16.0498 13.5645 15.7037C13.42 15.3594 13.1815 15.0536 12.8522 14.7933C12.5213 14.5329 12.0778 14.3229 11.5251 14.1633C10.9724 14.0037 10.2921 13.9248 9.48068 13.9248H8.57692L8.5618 19.6447H9.48068V19.6464ZM9.48068 29.4854C10.3593 29.4854 11.1001 29.3897 11.7032 29.2032C12.3062 29.0168 12.7951 28.7563 13.1697 28.4321C13.5443 28.1079 13.8164 27.7232 13.9827 27.2831C14.1507 26.8463 14.2348 26.3709 14.2348 25.8686C14.2348 25.4218 14.1457 24.9901 13.9677 24.5634C13.7929 24.1401 13.5258 23.7621 13.1747 23.4312C12.8253 23.1002 12.3919 22.8348 11.8796 22.6332C11.3655 22.43 10.7742 22.3292 10.1006 22.3292H8.56011V29.4854H9.48068Z" fill="white"/>
<path d="M31.8942 16.2547L29.3442 10.6978H38.3668L49.1532 32.7293H39.4772L37.8477 29.2015H29.1661L27.5501 32.7293H23.8022L31.8942 16.2547ZM36.2938 25.8099L33.5086 19.7623L30.7384 25.8099H36.2938Z" fill="white"/>
<path d="M50.6606 10.6978H56.0245L69.996 22.4299L70.0111 10.6978H73.2701V32.7141H67.9062L53.9179 21.0239V32.7141H50.6606V10.6978Z" fill="white"/>
<path d="M77.3823 10.6978H86.4351C88.9852 10.6978 91.1909 10.9363 93.0589 11.4167C94.9252 11.8955 96.4707 12.5977 97.6953 13.5266C98.9216 14.4573 99.8305 15.5962 100.422 16.9485C101.016 18.3042 101.31 19.853 101.31 21.6034C101.31 23.164 101.015 24.6188 100.422 25.9661C99.8288 27.315 98.9199 28.4893 97.6953 29.4938C96.4724 30.4984 94.9269 31.2846 93.0589 31.8558C91.1909 32.4303 88.9835 32.7158 86.4351 32.7158H77.3823V10.6978ZM85.948 29.4854C86.9358 29.4854 87.8227 29.3309 88.6156 29.0268C89.4051 28.7177 90.0721 28.2457 90.6214 27.6057C91.169 26.9623 91.589 26.1458 91.8796 25.1513C92.1719 24.1568 92.3164 22.9692 92.3164 21.5884C92.3164 20.2142 92.1686 19.045 91.8729 18.0774C91.5773 17.1098 91.1522 16.3152 90.5995 15.6987C90.0452 15.0822 89.3766 14.632 88.5904 14.3498C87.8059 14.0675 86.929 13.9265 85.9631 13.9265L85.948 29.4854Z" fill="white"/>
<path d="M104.136 10.6978H112.714L112.7 32.7141H104.136V10.6978Z" fill="white"/>
<path d="M131.711 23.5L129.339 22.0586C127.851 21.1515 126.792 20.2561 126.162 19.3775C125.532 18.4956 125.218 17.486 125.218 16.3403C125.218 14.6252 125.815 13.2292 127.006 12.1574C128.197 11.084 129.744 10.5498 131.649 10.5498C133.47 10.5498 135.14 11.0621 136.658 12.0818V15.6247C135.086 14.1162 133.396 13.3585 131.585 13.3585C130.567 13.3585 129.729 13.5937 129.072 14.0658C128.417 14.5378 128.087 15.1426 128.087 15.8767C128.087 16.5301 128.331 17.1416 128.813 17.7128C129.295 18.2823 130.073 18.8786 131.143 19.5052L133.529 20.918C136.188 22.5038 137.517 24.528 137.517 26.9823C137.517 28.7311 136.93 30.1522 135.761 31.2442C134.59 32.3361 133.067 32.882 131.195 32.882C129.042 32.882 127.081 32.2218 125.312 30.8964V26.9336C126.997 29.0704 128.948 30.1354 131.163 30.1354C132.141 30.1354 132.956 29.8633 133.606 29.3224C134.256 28.7781 134.58 28.0961 134.58 27.2746C134.582 25.9475 133.624 24.691 131.711 23.5Z" fill="white"/>
<path d="M158.274 10.8328H161.239V32.6358H158.556L143.978 15.8438V32.6358H141.043V10.8328H143.572L158.274 27.7659V10.8328Z" fill="white"/>
<path d="M184.058 27.5787V31.0106C181.768 32.2605 179.126 32.8837 176.127 32.8837C173.695 32.8837 171.627 32.3949 169.932 31.4172C168.235 30.4395 166.893 29.0906 165.905 27.3788C164.916 25.6603 164.422 23.8023 164.422 21.8033C164.422 18.6317 165.554 15.9607 167.817 13.7987C170.08 11.6333 172.872 10.5498 176.188 10.5498C178.477 10.5498 181.021 11.1478 183.821 12.3456V15.7003C181.271 14.2439 178.78 13.5148 176.346 13.5148C173.849 13.5148 171.775 14.3043 170.127 15.88C168.477 17.4558 167.651 19.4296 167.651 21.7999C167.651 24.1937 168.464 26.1625 170.086 27.7013C171.709 29.2401 173.786 30.0111 176.314 30.0111C178.96 30.0128 181.54 29.2031 184.058 27.5787Z" fill="white"/>
<path d="M112.712 4.30119C112.712 6.67653 110.788 8.59996 108.413 8.59996C106.038 8.59996 104.111 6.67653 104.111 4.30119C104.111 1.92585 106.036 -0.000976562 108.413 -0.000976562C110.788 -0.000976562 112.712 1.92417 112.712 4.30119Z" fill="#22AC39"/>
<path d="M0.226975 48.7705C0.635184 49.0225 1.23322 49.2325 1.86317 49.2325C2.79718 49.2325 3.34147 48.7369 3.34147 48.028C3.34147 47.3645 2.9635 46.9882 2.00933 46.6203C0.856935 46.2138 0.144694 45.6124 0.144694 44.6196C0.144694 43.5176 1.05684 42.6995 2.4293 42.6995C3.15332 42.6995 3.67575 42.8674 3.99156 43.0438L3.74129 43.788C3.50946 43.6637 3.03908 43.4537 2.39905 43.4537C1.4348 43.4537 1.06691 44.0316 1.06691 44.5137C1.06691 45.1739 1.49696 45.4981 2.47128 45.8761C3.66735 46.3381 4.27547 46.916 4.27547 47.9524C4.27547 49.041 3.46746 49.9868 1.79934 49.9868C1.12067 49.9868 0.373147 49.7868 -0.00146484 49.5332L0.226975 48.7705Z" fill="white"/>
<path d="M9.1884 49.8822V46.8836L6.95752 42.8149H7.99396L8.99015 44.7636C9.26397 45.2978 9.47061 45.7279 9.69403 46.2201H9.71418C9.91408 45.7615 10.1543 45.2978 10.4265 44.7636L11.4461 42.8149H12.4843L10.114 46.8735V49.8822H9.1884Z" fill="white"/>
<path d="M15.1225 48.7705C15.5307 49.0225 16.1304 49.2325 16.7604 49.2325C17.6927 49.2325 18.2387 48.7369 18.2387 48.028C18.2387 47.3645 17.859 46.9882 16.9065 46.6203C15.7541 46.2138 15.0402 45.6124 15.0402 44.6196C15.0402 43.5176 15.9524 42.6995 17.3265 42.6995C18.0488 42.6995 18.5729 42.8674 18.8871 43.0438L18.6368 43.788C18.405 43.6637 17.9346 43.4537 17.2946 43.4537C16.3303 43.4537 15.9624 44.0316 15.9624 44.5137C15.9624 45.1739 16.3925 45.4981 17.3668 45.8761C18.5629 46.3381 19.171 46.916 19.171 47.9524C19.171 49.041 18.3647 49.9868 16.6965 49.9868C16.0162 49.9868 15.2687 49.7868 14.894 49.5332L15.1225 48.7705Z" fill="white"/>
<path d="M23.8541 43.5894H21.7056V42.8149H26.9367V43.5894H24.7764V49.8822H23.8541V43.5894Z" fill="white"/>
<path d="M33.4781 46.5694H30.7315V49.1178H33.7923V49.8822H29.8193V42.8149H33.6343V43.5826H30.7315V45.8135H33.4781V46.5694Z" fill="white"/>
<path d="M43.0285 46.7804C42.9764 45.7926 42.9126 44.6084 42.9244 43.7298H42.8908C42.6489 44.5563 42.3583 45.4399 42.0004 46.4142L40.754 49.8429H40.0619L38.9196 46.4764C38.5836 45.4819 38.3014 44.5697 38.1015 43.7298H38.0796C38.0578 44.6084 38.0074 45.7926 37.9435 46.8526L37.7554 49.8849H36.8853L37.3775 42.8176H38.5399L39.7477 46.2362C40.04 47.1047 40.2803 47.8791 40.46 48.6148H40.4919C40.67 47.9026 40.922 47.1248 41.2361 46.2362L42.4943 42.8176H43.6585L44.0986 49.8849H43.2066L43.0285 46.7804Z" fill="white"/>
<path d="M56.3417 49.8821C56.1418 49.6822 55.9536 49.4823 55.6815 49.19C55.0734 49.7545 54.3913 49.9963 53.6152 49.9963C52.2428 49.9963 51.4448 49.0741 51.4448 48.0141C51.4448 47.0499 52.0227 46.3897 52.829 45.9478V45.9193C52.4628 45.4573 52.2411 44.945 52.2411 44.4394C52.2411 43.5793 52.8593 42.7007 54.0335 42.7007C54.9137 42.7007 55.5958 43.2886 55.5958 44.2008C55.5958 44.945 55.1657 45.5329 54.0436 46.0873V46.1209C54.6416 46.8096 55.3119 47.5874 55.7637 48.0931C56.0863 47.6009 56.3081 46.9155 56.4425 46.0268H57.2824C57.0942 47.1355 56.7902 48.0175 56.2661 48.6357C56.644 49.0355 57.0102 49.4369 57.4302 49.8855H56.3417V49.8821ZM55.2296 48.6659C54.8113 48.2039 54.0251 47.3439 53.2389 46.4451C52.8609 46.6887 52.3267 47.1338 52.3267 47.8814C52.3267 48.6844 52.9214 49.306 53.7714 49.306C54.3812 49.3043 54.8953 49.0321 55.2296 48.6659ZM53.081 44.357C53.081 44.8593 53.3111 45.2457 53.6135 45.6236C54.3275 45.2171 54.7878 44.8392 54.7878 44.2428C54.7878 43.8128 54.5459 43.3306 53.9713 43.3306C53.3851 43.3306 53.081 43.8127 53.081 44.357Z" fill="white"/>
<path d="M69.613 49.6503C69.277 49.8217 68.6067 49.9879 67.7466 49.9879C65.7543 49.9879 64.2559 48.728 64.2559 46.4115C64.2559 44.2008 65.7543 42.7007 67.9465 42.7007C68.8268 42.7007 69.3828 42.8905 69.623 43.0165L69.403 43.7607C69.0569 43.5927 68.5647 43.465 67.9768 43.465C66.3204 43.465 65.2184 44.525 65.2184 46.3812C65.2184 48.1098 66.2146 49.2186 67.9331 49.2186C68.4891 49.2186 69.0552 49.1077 69.4231 48.9263L69.613 49.6503Z" fill="white"/>
<path d="M72.8521 42.8149H73.7642V49.1145H76.783V49.8822H72.8521V42.8149Z" fill="white"/>
<path d="M85.526 46.2771C85.526 48.7079 84.0477 49.998 82.2452 49.998C80.3806 49.998 79.0669 48.5517 79.0669 46.4115C79.0669 44.1672 80.4629 42.7007 82.3494 42.7007C84.2779 42.7007 85.526 44.1806 85.526 46.2771ZM80.0429 46.3913C80.0429 47.8999 80.861 49.2522 82.2973 49.2522C83.7437 49.2522 84.5634 47.92 84.5634 46.3157C84.5634 44.9114 83.8277 43.4449 82.3074 43.4449C80.7972 43.4449 80.0429 44.8391 80.0429 46.3913Z" fill="white"/>
<path d="M89.7188 42.8149V46.9978C89.7188 48.5819 90.421 49.2522 91.3634 49.2522C92.4117 49.2522 93.0819 48.5601 93.0819 46.9978V42.8149H94.0042V46.9357C94.0042 49.1044 92.8619 49.9964 91.3315 49.9964C89.8851 49.9964 88.7949 49.1665 88.7949 46.9777V42.8149H89.7188Z" fill="white"/>
<path d="M97.6855 42.911C98.2416 42.8254 98.9018 42.7632 99.6258 42.7632C100.936 42.7632 101.868 43.0689 102.487 43.6418C103.117 44.223 103.483 45.0361 103.483 46.1817C103.483 47.3341 103.127 48.2782 102.468 48.9283C101.806 49.5885 100.714 49.9446 99.3436 49.9446C98.6918 49.9446 98.1492 49.911 97.6872 49.859V42.911H97.6855ZM98.5977 49.1585C98.8295 49.2005 99.1638 49.2106 99.5199 49.2106C101.47 49.2106 102.529 48.122 102.529 46.212C102.54 44.5455 101.596 43.4855 99.6661 43.4855C99.1974 43.4855 98.8413 43.5275 98.5977 43.5847V49.1585Z" fill="white"/>
<path d="M111.995 42.8149H111.083V49.8822H111.995V42.8149Z" fill="white"/>
<path d="M115.685 49.8822V42.8149H116.681L118.947 46.3914C119.47 47.2179 119.88 47.9637 120.216 48.6844L120.236 48.6743C120.152 47.7319 120.132 46.8735 120.132 45.7715V42.8149H120.992V49.8822H120.07L117.825 46.2956C117.333 45.5078 116.861 44.7014 116.505 43.9371L116.471 43.9472C116.523 44.8392 116.547 45.6858 116.547 46.8601V49.8822H115.685Z" fill="white"/>
<path d="M124.68 49.8822V42.8149H125.676L127.941 46.3914C128.465 47.2179 128.875 47.9637 129.209 48.6844L129.231 48.6743C129.147 47.7319 129.127 46.8735 129.127 45.7715V42.8149H129.989V49.8822H129.065L126.82 46.2956C126.328 45.5078 125.858 44.7014 125.5 43.9371L125.47 43.9472C125.522 44.8392 125.544 45.6858 125.544 46.8601V49.8822H124.68Z" fill="white"/>
<path d="M139.712 46.2771C139.712 48.7079 138.233 49.998 136.431 49.998C134.566 49.998 133.252 48.5517 133.252 46.4115C133.252 44.1672 134.648 42.7007 136.535 42.7007C138.463 42.7007 139.712 44.1806 139.712 46.2771ZM134.228 46.3913C134.228 47.8999 135.047 49.2522 136.483 49.2522C137.929 49.2522 138.749 47.92 138.749 46.3157C138.749 44.9114 138.013 43.4449 136.493 43.4449C134.983 43.4449 134.228 44.8391 134.228 46.3913Z" fill="white"/>
<path d="M144.544 49.8822L142.238 42.8149H143.224L144.323 46.2956C144.628 47.2498 144.89 48.1099 145.077 48.9364H145.1C145.297 48.12 145.592 47.2263 145.907 46.3057L147.103 42.8149H148.077L145.55 49.8822H144.544Z" fill="white"/>
<path d="M151.484 47.658L150.751 49.8822H149.807L152.209 42.8149H153.31L155.722 49.8822H154.748L153.993 47.658H151.484ZM153.8 46.9457L153.108 44.9114C152.952 44.4528 152.848 44.0329 152.742 43.6213H152.72C152.616 44.0413 152.5 44.4713 152.364 44.9014L151.672 46.9457H153.8Z" fill="white"/>
<path d="M159.387 43.5894H157.235V42.8149H162.47V43.5894H160.31V49.8822H159.387V43.5894Z" fill="white"/>
<path d="M166.265 42.8149H165.353V49.8822H166.265V42.8149Z" fill="white"/>
<path d="M175.991 46.2771C175.991 48.7079 174.513 49.998 172.711 49.998C170.846 49.998 169.532 48.5517 169.532 46.4115C169.532 44.1672 170.928 42.7007 172.815 42.7007C174.743 42.7007 175.991 44.1806 175.991 46.2771ZM170.51 46.3913C170.51 47.8999 171.328 49.2522 172.764 49.2522C174.211 49.2522 175.03 47.92 175.03 46.3157C175.03 44.9114 174.296 43.4449 172.774 43.4449C171.264 43.4449 170.51 44.8391 170.51 46.3913Z" fill="white"/>
<path d="M179.274 49.8822V42.8149H180.27L182.535 46.3914C183.059 47.2179 183.469 47.9637 183.805 48.6844L183.825 48.6743C183.741 47.7319 183.721 46.8735 183.721 45.7715V42.8149H184.582V49.8822H183.658L181.414 46.2956C180.922 45.5078 180.451 44.7014 180.095 43.9371L180.062 43.9472C180.114 44.8392 180.136 45.6858 180.136 46.8601V49.8822H179.274Z" fill="white"/>
</svg>
